<svg xmlns="http://www.w3.org/2000/svg">
  <!-- бургер -->
  <symbol id="burger" viewBox="0 0 50 50" fill="none">
    <path d="M10.4167 14.582H39.5834" stroke-width="2.58934" stroke-linecap="round" stroke-linejoin="round" />
    <path d="M10.4167 25H39.5834" stroke-width="2.58934" stroke-linecap="round" stroke-linejoin="round" />
    <path d="M10.4167 35.416H39.5834" stroke-width="2.58934" stroke-linecap="round" stroke-linejoin="round" />
  </symbol>
  <!-- бургер крестик -->
  <symbol id="cross" viewBox="0 0 24 24" fill="none">
    <path d="M18 6L6 18M6 6L18 18" stroke="#fff" stroke-width="1" stroke-linecap="round" stroke-linejoin="round" />
  </symbol>
  <!-- корзина -->
  <symbol id="cart" viewBox="0 0 36 36" fill="none">
    <path d="M4.5 13.5C4.5 11.8431 5.84314 10.5 7.5 10.5H28.5C30.1569 10.5 31.5 11.8431 31.5 13.5V30C31.5 31.6569 30.1569 33 28.5 33H7.5C5.84314 33 4.5 31.6569 4.5 30V13.5Z" stroke-width="2" stroke-linecap="round" stroke-linejoin="round" />
    <path d="M12 15V9C12 5.68629 14.6863 3 18 3C21.3137 3 24 5.68629 24 9V14.5332" stroke-width="2" stroke-linecap="round" stroke-linejoin="round" />
  </symbol>
<symbol id="arrow" viewBox="0 0 35 30">
  <path fill-rule="evenodd" clip-rule="evenodd" d="M30.74 16.0343L0.98898 15.7073C0.436728 15.7012 -0.00603869 15.2486 3.19817e-05 14.6963C0.00610265 14.1441 0.458713 13.7013 1.01096 13.7074L30.9073 14.036L19.3275 1.68382C18.9498 1.2809 18.9702 0.648068 19.3732 0.270346C19.7761 -0.107377 20.4089 -0.0869511 20.7866 0.315968L33.9691 14.3778C34.3468 14.7807 34.3264 15.4136 33.9235 15.7913L19.219 29.5762C18.8161 29.9539 18.1832 29.9335 17.8055 29.5306C17.4278 29.1277 17.4482 28.4948 17.8511 28.1171L30.74 16.0343Z" />
</symbol>
<symbol id="cart" viewBox="0 0 48 48"><title>Winkelwagen</title><path fill-rule="evenodd" d="M33.5 38.25a.75.75 0 0 1 0 1.5.75.75 0 0 1 0-1.5zm-3 .75c0 1.654 1.346 3 3 3s3-1.346 3-3-1.346-3-3-3-3 1.346-3 3zM9 39.891a.75.75 0 1 1 0-1.5.75.75 0 0 1 0 1.5zm0-3.9c-1.654 0-3 1.346-3 3s1.346 3 3 3 3-1.346 3-3-1.346-3-3-3zm27.953-10.715l-5.166.163.205-5.939h6.575l-.235 4.381c-.052.755-.66 1.354-1.379 1.395zm-21.05-1.439l-.932-4.337h6.53v6.264l-5.49.173c.057-.695.03-1.4-.108-2.1zM19 13h2.5v5h-6.853l-1.224-5.696C14.791 12.696 16.61 13 19 13zm11.49 6.5l-.206 5.986-7.284.23V19.5h7.49zm.225-6.5l-.173 5H23v-5h7.715zm7.933 5h-6.604l.172-5h6.701l-.269 5zm2.941-7.532A1.5 1.5 0 0 0 40.5 10H19c-3.474 0-5.422-.717-6.328-1.187l-.085-.395A3.077 3.077 0 0 0 9.595 6H6v3l3.653.048 3.312 15.392a4.502 4.502 0 0 1-.803 3.551l-1.836 2.361a3.478 3.478 0 0 0-.382 3.686A3.479 3.479 0 0 0 13.09 36h23.36v-3H13.09a.479.479 0 0 1-.45-.28.482.482 0 0 1 .053-.527l1.852-2.381c.202-.269.378-.554.541-.845l21.997-.694a4.512 4.512 0 0 0 4.243-4.21l.672-12.482a1.503 1.503 0 0 0-.409-1.113z"/>
</symbol>
<symbol id="delivery" viewBox="0 0 79 56" fill="none">
  <path fill-rule="evenodd" clip-rule="evenodd" d="M0 1.48649C0 0.665523 0.665523 0 1.48649 0H17.7247H36.9158H52.4167C53.2376 0 53.9031 0.665523 53.9031 1.48649V8.84002H66.4412C67.0807 8.84002 67.6486 9.24903 67.8512 9.85561L72.6788 24.3102H77.513C78.334 24.3102 78.9995 24.9757 78.9995 25.7966V45.6868C78.9995 46.5078 78.334 47.1733 77.513 47.1733H75.1921C74.4702 52.165 70.1664 56.0004 64.965 56.0004C59.5105 56.0004 55.043 51.7826 54.6582 46.4366H52.4311L52.4167 46.4367H30.984C30.5992 51.7826 26.1317 56.0004 20.6772 56.0004C15.2228 56.0004 10.7553 51.7826 10.3705 46.4367H1.48649C0.665523 46.4367 0 45.7712 0 44.9502V1.48649ZM54.872 43.4637C55.8907 38.8364 60.0226 35.3735 64.965 35.3735C70.1663 35.3735 74.4701 39.2088 75.1921 44.2003H76.0265V27.2831H71.6081H53.9035V43.4637H54.872ZM50.9302 43.4637H30.7702C29.7516 38.8364 25.6196 35.3735 20.6772 35.3735C15.7349 35.3735 11.6029 38.8364 10.5843 43.4637H2.97297V2.97297H16.2382V16.22C16.2382 16.7429 16.5131 17.2275 16.9619 17.4958C17.4108 17.7642 17.9677 17.7769 18.4284 17.5293L27.3203 12.7508L36.2121 17.5293C36.6728 17.7769 37.2297 17.7642 37.6786 17.4958C38.1274 17.2275 38.4023 16.7429 38.4023 16.22V2.97297H50.9302V43.4637ZM53.9031 24.3102H69.5444L65.3705 11.813H53.9031V24.3102ZM19.2112 2.97297H35.4293V13.7336L28.0239 9.75386C27.5845 9.51772 27.056 9.51772 26.6166 9.75386L19.2112 13.7336V2.97297ZM31.0012 26.5332C31.0012 25.7123 31.6667 25.0468 32.4877 25.0468H42.8214C43.6423 25.0468 44.3078 25.7123 44.3078 26.5332C44.3078 27.3542 43.6423 28.0197 42.8214 28.0197H32.4877C31.6667 28.0197 31.0012 27.3542 31.0012 26.5332ZM35.4402 33.887C34.6192 33.887 33.9537 34.5525 33.9537 35.3735C33.9537 36.1945 34.6192 36.86 35.4402 36.86H42.8206C43.6415 36.86 44.3071 36.1945 44.3071 35.3735C44.3071 34.5525 43.6415 33.887 42.8206 33.887H35.4402ZM20.6772 53.0274C24.7479 53.0274 28.0379 49.7355 28.0379 45.6869C28.0379 41.6384 24.7479 38.3465 20.6772 38.3465C16.6066 38.3465 13.3166 41.6384 13.3166 45.6869C13.3166 49.7355 16.6066 53.0274 20.6772 53.0274ZM72.3257 45.6869C72.3257 49.7355 69.0357 53.0274 64.965 53.0274C60.8943 53.0274 57.6043 49.7355 57.6043 45.6869C57.6043 41.6384 60.8943 38.3465 64.965 38.3465C69.0357 38.3465 72.3257 41.6384 72.3257 45.6869Z" fill="#C5358C" />
</symbol>
<symbol id="offer" viewBox="0 0 110 110" fill="none">
  <path opacity="0.9" d="M46.7907 30H16V81H46.7907M46.7907 30H92V81H46.7907M46.7907 30V81M23.6279 55.3591H38.3256M23.6279 66.7238H38.3256M23.6279 43.6188H38.3256M77.0251 40.4254L62.4186 69.0718M84.1861 63.5304C84.1861 67.0577 81.3956 69.9171 77.9535 69.9171C74.5113 69.9171 71.7209 67.0577 71.7209 63.5304C71.7209 60.0031 74.5113 57.1436 77.9535 57.1436C81.3956 57.1436 84.1861 60.0031 84.1861 63.5304ZM67.4419 46.2486C67.4419 49.7759 64.6515 52.6354 61.2093 52.6354C57.7672 52.6354 54.9767 49.7759 54.9767 46.2486C54.9767 42.7213 57.7672 39.8619 61.2093 39.8619C64.6515 39.8619 67.4419 42.7213 67.4419 46.2486Z" stroke="#C5358C" stroke-width="3" stroke-linecap="round" stroke-linejoin="round" />
</symbol>
<symbol id="guarantee" viewBox="0 0 80 80" fill="none" >
  <path fill-rule="evenodd" clip-rule="evenodd" d="M1.48649 0C0.665523 0 0 0.665523 0 1.48649V57.7793C0 58.6002 0.665523 59.2657 1.48649 59.2657H35.9741V57.9869C36.0846 70.1634 45.8976 80 57.9866 80C70.1442 80 80 70.0514 80 57.7791C80 45.5301 70.1815 35.596 58.0556 35.5584H60.2078V1.48649C60.2078 0.665523 59.5423 0 58.7213 0H1.48649ZM57.9176 35.5584H57.2348V2.97297H40.3954V16.3004C40.3954 16.8337 40.1097 17.3262 39.6467 17.5909C39.1836 17.8556 38.6143 17.8519 38.1547 17.5813L30.0743 12.8233L21.2743 17.6064C20.8137 17.8567 20.2553 17.846 19.8047 17.578C19.3541 17.3101 19.078 16.8246 19.078 16.3004V2.97297H2.97297V56.2928H35.9741V57.5714C36.0844 45.418 45.8603 35.5958 57.9176 35.5584ZM22.0509 13.8005V2.97297H37.4225V13.7L30.8578 9.83458C30.408 9.56974 29.8523 9.56021 29.3937 9.80947L22.0509 13.8005ZM10.2914 31.1091C9.47041 31.1091 8.80489 31.7746 8.80489 32.5956C8.80489 33.4166 9.47041 34.0821 10.2914 34.0821H26.4355C27.2565 34.0821 27.922 33.4166 27.922 32.5956C27.922 31.7746 27.2565 31.1091 26.4355 31.1091H10.2914ZM67.0323 54.4592C67.6531 53.922 67.7209 52.9832 67.1838 52.3624C66.6466 51.7416 65.7079 51.6737 65.087 52.2109L56.0244 60.0521L52.5764 55.4115C52.0867 54.7525 51.1556 54.6152 50.4966 55.1048C49.8377 55.5944 49.7004 56.5255 50.19 57.1845L54.5929 63.1105C54.8395 63.4423 55.2131 63.6565 55.624 63.7015C56.0349 63.7466 56.4461 63.6185 56.7587 63.348L67.0323 54.4592ZM8.80489 44.4467C8.80489 43.6257 9.47041 42.9602 10.2914 42.9602H22.0326C22.8535 42.9602 23.519 43.6257 23.519 44.4467C23.519 45.2676 22.8535 45.9332 22.0326 45.9332H10.2914C9.47041 45.9332 8.80489 45.2676 8.80489 44.4467ZM77.0649 57.7791C77.0649 68.4151 68.5232 77.0372 57.9866 77.0372C47.4499 77.0372 38.9083 68.4151 38.9083 57.7791C38.9083 47.1432 47.4499 38.5211 57.9866 38.5211C68.5232 38.5211 77.0649 47.1432 77.0649 57.7791Z" fill="#C5358C" />
</symbol>
<symbol id="pay" viewBox="0 0 110 110" fill="none">
  <path d="M75.5761 54.3411V86H18V44.4098H58.0449H59.3367M75.5761 54.3411L92 45.8086V17.3669C92 17.3669 89.6304 15.6929 88.3538 14.1047C87.1216 12.5718 85.9102 10 85.9102 10H65.288C65.288 10 64.6618 12.5659 63.4629 14.1047C62.2103 15.7124 59.3367 17.3669 59.3367 17.3669V44.4098M75.5761 54.3411L59.3367 44.4098M70.9626 31.0748L74.2843 34.0589L81.4813 27.9975M26.3965 52.4294H37.6534V63.6196H26.3965V52.4294ZM25.2893 72.5718H31.1945V77.0479H25.2893V72.5718ZM62.3815 72.5718H68.2868V77.0479H62.3815V72.5718ZM50.0175 72.5718H55.9227V77.0479H50.0175V72.5718ZM37.6534 72.5718H43.5586V77.0479H37.6534V72.5718Z" stroke="#C5358C" stroke-width="3" stroke-linecap="round" stroke-linejoin="round" />
</symbol>
<symbol id="consultation" viewBox="0 0 52 77" fill="none">
  <path fill-rule="evenodd" clip-rule="evenodd" d="M1.5 0C0.671573 0 0 0.671573 0 1.5V75.5C0 76.3284 0.671573 77 1.5 77H50.5C51.3284 77 52 76.3284 52 75.5V57.37V1.5C52 0.671573 51.3284 0 50.5 0H26H1.5ZM49 3V55.87H3V3H26H49ZM49 74V58.87H3V74H49ZM19.9664 65.86C19.138 65.86 18.4664 66.5316 18.4664 67.36C18.4664 68.1884 19.138 68.86 19.9664 68.86H30.2052C31.0337 68.86 31.7052 68.1884 31.7052 67.36C31.7052 66.5316 31.0337 65.86 30.2052 65.86H19.9664ZM14.9487 16.9535C15.2426 16.6678 15.65 16.5 16.0833 16.5H21.2451L23.4491 21.8568L20.7234 23.4468C20.0373 23.847 19.7821 24.7127 20.1414 25.4211C21.9446 28.9757 24.8991 31.844 28.539 33.5892C29.2307 33.9209 30.0611 33.6772 30.464 33.0245L32.1205 30.3403L37.7083 32.5134V37.4826C37.7083 37.866 37.5521 38.2425 37.2596 38.5268C36.9743 38.8042 36.5821 38.9704 36.1629 38.9799C30.522 38.6346 25.2111 36.3005 21.2249 32.425C17.2411 28.5518 14.8548 23.4071 14.5005 17.9585C14.5108 17.5887 14.6662 17.2281 14.9487 16.9535ZM16.0833 13.5C14.8812 13.5 13.72 13.9639 12.8575 14.8025C11.9935 15.6425 11.5 16.791 11.5 17.9977C11.5 18.0289 11.501 18.0601 11.5029 18.0913C11.892 24.3157 14.6105 30.1784 19.1337 34.576C23.6558 38.9725 29.669 41.6015 36.0365 41.9777C36.066 41.9795 36.0955 41.9803 36.125 41.9803C37.3272 41.9803 38.4883 41.5164 39.3509 40.6778C40.2149 39.8378 40.7083 38.6894 40.7083 37.4826V31.4873C40.7083 30.8686 40.3286 30.3135 39.752 30.0893L32.0437 27.0916C31.3692 26.8293 30.6036 27.086 30.2235 27.7018L28.6501 30.2514C26.5542 29.0144 24.7951 27.3128 23.515 25.2915L26.0891 23.7899C26.736 23.4126 27.0054 22.616 26.7205 21.9235L23.6372 14.4293C23.4058 13.867 22.858 13.5 22.25 13.5H16.0833Z" fill="#C5358C" />
</symbol>
</svg>